<?xml version="1.0" standalone="no"?>
<!DOCTYPE svg PUBLIC "-//W3C//DTD SVG 20010904//EN"
 "http://www.w3.org/TR/2001/REC-SVG-20010904/DTD/svg10.dtd">
<svg version="1.0" xmlns="http://www.w3.org/2000/svg"
 width="1024.000000pt" height="1024.000000pt" viewBox="0 0 1024.000000 1024.000000"
 preserveAspectRatio="xMidYMid meet">
<metadata>
Created by potrace 1.15, written by Peter Selinger 2001-2017
</metadata>
<g transform="translate(0.000000,1024.000000) scale(0.100000,-0.100000)"
fill="#000000" stroke="none">
<path d="M2330 6240 l0 -790 105 0 105 0 0 404 c0 224 4 426 10 455 14 77 38
120 96 177 75 74 131 98 229 98 69 1 88 -3 138 -28 68 -35 139 -107 170 -173
22 -47 22 -58 25 -490 l3 -443 619 0 620 0 -2 788 -3 787 -1057 3 -1058 2 0
-790z m1728 465 c85 -20 156 -58 207 -111 48 -49 95 -138 95 -178 0 -25 -2
-26 -65 -26 l-64 0 -19 43 c-57 128 -201 193 -375 168 -137 -19 -211 -81 -211
-175 0 -113 58 -154 333 -233 221 -63 295 -97 351 -160 41 -47 70 -120 70
-178 0 -59 -30 -135 -70 -179 -83 -90 -201 -130 -380 -129 -183 0 -293 39
-389 135 -56 56 -84 107 -85 158 l-1 35 62 3 61 3 32 -60 c60 -112 145 -154
315 -155 155 -1 231 26 282 103 48 71 15 173 -72 222 -28 15 -137 53 -243 84
-209 60 -271 86 -332 141 -57 52 -83 112 -83 195 0 146 97 254 268 295 70 17
238 17 313 -1z"/>
<path d="M4514 6367 c-3 -9 -4 -143 -2 -299 3 -273 4 -285 27 -336 53 -117
165 -178 311 -170 129 8 216 70 262 188 20 51 21 74 22 340 l1 285 -50 0 -50
0 -5 -285 c-5 -281 -5 -286 -30 -329 -14 -24 -42 -58 -63 -75 -35 -28 -45 -31
-111 -31 -62 0 -78 4 -114 28 -23 15 -52 46 -64 70 -22 40 -23 55 -28 332 l-5
290 -48 3 c-34 2 -49 -1 -53 -11z"/>
<path d="M5250 6335 l0 -45 130 0 130 0 0 -355 0 -355 50 0 50 0 0 355 0 355
135 0 135 0 0 45 0 45 -315 0 -315 0 0 -45z"/>
<path d="M5997 6374 c-4 -4 -7 -184 -7 -401 l0 -393 55 0 55 0 -2 398 -3 397
-45 3 c-25 2 -49 0 -53 -4z"/>
<path d="M6230 6366 c0 -15 253 -698 281 -758 11 -25 17 -28 65 -28 42 0 55 4
63 19 14 26 291 761 291 772 0 14 -96 11 -108 -3 -6 -7 -63 -154 -128 -326
l-117 -314 -121 324 -122 323 -52 3 c-41 2 -52 0 -52 -12z"/>
<path d="M7259 6373 c-9 -2 -21 -15 -28 -29 -22 -50 -281 -742 -281 -753 0 -7
21 -11 54 -11 l53 0 38 100 38 100 165 -2 165 -3 36 -95 37 -95 57 -3 c31 -2
57 -1 57 1 0 25 -293 775 -306 784 -17 13 -52 15 -85 6z m104 -323 c30 -80 58
-153 62 -162 7 -17 -3 -18 -125 -18 -104 0 -131 3 -128 13 14 57 124 333 130
324 3 -7 31 -77 61 -157z"/>
<path d="M7777 6373 c-4 -3 -7 -183 -7 -400 l0 -393 55 0 55 0 2 311 3 310
184 -293 c101 -161 191 -301 199 -310 11 -14 30 -18 79 -18 l63 0 -2 398 -3
397 -50 0 -50 0 -5 -315 -5 -314 -194 307 c-107 170 -202 312 -212 317 -20 11
-102 13 -112 3z"/>
<path d="M7399 5410 c-70 -37 -100 -167 -60 -256 56 -123 224 -123 288 0 27
52 22 144 -11 200 -44 75 -137 99 -217 56z m129 -31 c47 -16 66 -53 67 -130 0
-101 -37 -149 -117 -149 -68 0 -108 54 -108 148 0 109 66 163 158 131z"/>
<path d="M2052 5403 c-44 -23 -82 -100 -82 -167 1 -124 91 -203 205 -182 42 8
105 60 105 87 0 27 -34 24 -49 -5 -26 -48 -117 -63 -163 -26 -38 29 -51 71
-46 146 4 60 7 70 36 95 26 23 42 29 78 29 40 0 51 -5 80 -35 32 -34 64 -46
64 -24 0 26 -43 78 -72 88 -44 16 -117 12 -156 -6z"/>
<path d="M2552 5403 c-44 -23 -82 -100 -82 -167 1 -98 54 -168 138 -182 l41
-6 4 -102 3 -101 2 103 c2 102 2 103 30 113 79 30 124 126 103 219 -12 56 -56
116 -93 129 -44 15 -107 12 -146 -6z m136 -37 c40 -21 57 -60 57 -131 0 -97
-39 -145 -117 -145 -68 0 -108 54 -108 145 0 91 40 145 108 145 18 0 45 -6 60
-14z"/>
<path d="M5772 5403 c-44 -23 -82 -100 -82 -167 1 -94 51 -164 132 -181 l27
-6 4 -102 3 -102 2 101 2 102 35 6 c42 8 105 60 105 87 0 27 -34 24 -49 -5
-26 -48 -117 -63 -163 -26 -38 29 -51 71 -46 146 4 60 7 70 36 95 26 23 42 29
78 29 40 0 51 -5 80 -35 32 -34 64 -46 64 -24 0 26 -43 78 -72 88 -44 16 -117
12 -156 -6z"/>
<path d="M3070 5235 l0 -175 25 0 24 0 3 136 3 135 91 -133 c81 -119 94 -133
122 -136 l32 -3 0 175 0 176 -25 0 -24 0 -3 -142 -3 -142 -93 142 c-85 129
-96 142 -123 142 l-29 0 0 -175z"/>
<path d="M3634 5400 c-28 -11 -64 -58 -64 -82 0 -10 7 -32 15 -48 15 -28 35
-38 153 -75 115 -36 79 -126 -45 -112 -37 4 -52 12 -73 38 -19 22 -32 30 -44
26 -15 -6 -15 -9 -1 -38 17 -32 81 -68 122 -69 21 0 22 -5 26 -97 l3 -98 2 97
2 96 30 7 c17 4 44 18 60 32 23 19 30 33 30 62 0 51 -30 77 -115 101 -85 24
-115 44 -115 75 0 33 35 55 89 55 37 0 49 -5 77 -35 18 -19 37 -35 43 -35 40
0 -4 83 -53 100 -35 12 -113 12 -142 0z"/>
<path d="M7950 5225 l0 -175 25 0 24 0 3 136 3 135 91 -133 c81 -119 94 -133
122 -136 l32 -3 0 175 0 176 -25 0 -24 0 -3 -142 -3 -142 -93 142 c-85 129
-96 142 -123 142 l-29 0 0 -175z"/>
<path d="M4110 5370 c0 -18 7 -20 60 -20 l60 0 0 -155 0 -155 25 0 25 0 0 155
0 154 62 3 c50 2 63 6 66 21 3 16 -9 17 -147 17 -144 0 -151 -1 -151 -20z"/>
<path d="M4680 5215 l0 -175 25 0 c24 0 25 2 25 66 l0 65 52 -3 c52 -3 53 -4
96 -65 33 -48 49 -63 68 -63 13 0 24 2 24 6 0 9 -79 122 -90 129 -6 4 4 16 22
29 47 31 62 67 48 111 -21 62 -48 75 -166 75 l-104 0 0 -175z m210 115 c27
-27 25 -66 -5 -95 -21 -22 -33 -25 -90 -25 l-65 0 0 70 0 70 70 0 c57 0 74 -4
90 -20z"/>
<path d="M5181 5263 c4 -146 19 -185 79 -215 71 -36 157 -13 195 52 17 29 21
57 24 163 l3 127 -25 0 -25 0 -4 -136 c-3 -135 -3 -136 -31 -160 -19 -16 -40
-24 -67 -24 -27 0 -48 8 -67 24 -28 24 -28 25 -31 160 l-4 136 -25 0 -25 0 3
-127z"/>
<path d="M6230 5360 c0 -18 7 -20 60 -20 l60 0 0 -155 0 -155 25 0 25 0 0 155
0 154 62 3 c50 2 63 6 66 21 3 16 -9 17 -147 17 -144 0 -151 -1 -151 -20z"/>
<path d="M6900 5205 c0 -105 4 -175 10 -175 5 0 11 -42 13 -92 l3 -93 2 93 c1
53 6 92 12 92 6 0 10 65 10 175 l0 175 -25 0 -25 0 0 -175z"/>
</g>
</svg>
